<svg width="20" height="20" viewBox="0 0 20 20" fill="none" xmlns="http://www.w3.org/2000/svg">
<path fill-rule="evenodd" clip-rule="evenodd" d="M0.926575 10.25C0.926575 5.01795 5.16798 0.77655 10.4 0.77655C15.632 0.77655 19.8734 5.01795 19.8734 10.25C19.8734 15.482 15.632 19.7234 10.4 19.7234C5.16798 19.7234 0.926575 15.482 0.926575 10.25ZM11.5016 9.36875C11.5016 9.00372 11.2057 8.70781 10.8406 8.70781L9.07813 8.70781C8.71311 8.70781 8.4172 9.00372 8.4172 9.36875C8.4172 9.73377 8.71311 10.0297 9.07813 10.0297H10.1797V14.6562C10.1797 15.0213 10.4756 15.3172 10.8406 15.3172C11.2057 15.3172 11.5016 15.0213 11.5016 14.6562L11.5016 9.36875ZM11.5016 5.84375C11.5016 5.47872 11.2057 5.18281 10.8406 5.18281C10.4756 5.18281 10.1797 5.47872 10.1797 5.84375V6.725C10.1797 7.09002 10.4756 7.38594 10.8406 7.38594C11.2057 7.38594 11.5016 7.09002 11.5016 6.725V5.84375Z" fill="black"/>
</svg>
