<svg width="30" height="31" viewBox="0 0 30 31" fill="none" xmlns="http://www.w3.org/2000/svg">
<g clip-path="url(#clip0_179_310)">
<path d="M15 2.7168C19.0078 2.7168 19.4824 2.73437 21.0586 2.80469C22.5234 2.86914 23.3145 3.11523 23.8418 3.32031C24.5391 3.58984 25.043 3.91797 25.5645 4.43945C26.0918 4.9668 26.4141 5.46484 26.6836 6.16211C26.8887 6.68945 27.1348 7.48633 27.1992 8.94531C27.2695 10.5273 27.2871 11.002 27.2871 15.0039C27.2871 19.0117 27.2695 19.4863 27.1992 21.0625C27.1348 22.5273 26.8887 23.3184 26.6836 23.8457C26.4141 24.543 26.0859 25.0469 25.5645 25.5684C25.0371 26.0957 24.5391 26.418 23.8418 26.6875C23.3145 26.8926 22.5176 27.1387 21.0586 27.2031C19.4766 27.2734 19.002 27.291 15 27.291C10.9922 27.291 10.5176 27.2734 8.94141 27.2031C7.47656 27.1387 6.68555 26.8926 6.1582 26.6875C5.46094 26.418 4.95703 26.0898 4.43555 25.5684C3.9082 25.041 3.58594 24.543 3.31641 23.8457C3.11133 23.3184 2.86523 22.5215 2.80078 21.0625C2.73047 19.4805 2.71289 19.0059 2.71289 15.0039C2.71289 10.9961 2.73047 10.5215 2.80078 8.94531C2.86523 7.48047 3.11133 6.68945 3.31641 6.16211C3.58594 5.46484 3.91406 4.96094 4.43555 4.43945C4.96289 3.91211 5.46094 3.58984 6.1582 3.32031C6.68555 3.11523 7.48242 2.86914 8.94141 2.80469C10.5176 2.73437 10.9922 2.7168 15 2.7168ZM15 0.015625C10.9277 0.015625 10.418 0.0332031 8.81836 0.103516C7.22461 0.173828 6.12891 0.431641 5.17969 0.800781C4.18945 1.1875 3.35156 1.69727 2.51953 2.53516C1.68164 3.36719 1.17188 4.20508 0.785156 5.18945C0.416016 6.14453 0.158203 7.23437 0.0878906 8.82812C0.0175781 10.4336 0 10.9434 0 15.0156C0 19.0879 0.0175781 19.5977 0.0878906 21.1973C0.158203 22.791 0.416016 23.8867 0.785156 24.8359C1.17188 25.8262 1.68164 26.6641 2.51953 27.4961C3.35156 28.3281 4.18945 28.8438 5.17383 29.2246C6.12891 29.5938 7.21875 29.8516 8.8125 29.9219C10.4121 29.9922 10.9219 30.0098 14.9941 30.0098C19.0664 30.0098 19.5762 29.9922 21.1758 29.9219C22.7695 29.8516 23.8652 29.5938 24.8145 29.2246C25.7988 28.8438 26.6367 28.3281 27.4688 27.4961C28.3008 26.6641 28.8164 25.8262 29.1973 24.8418C29.5664 23.8867 29.8242 22.7969 29.8945 21.2031C29.9648 19.6035 29.9824 19.0938 29.9824 15.0215C29.9824 10.9492 29.9648 10.4395 29.8945 8.83984C29.8242 7.24609 29.5664 6.15039 29.1973 5.20117C28.8281 4.20508 28.3184 3.36719 27.4805 2.53516C26.6484 1.70312 25.8105 1.1875 24.8262 0.806641C23.8711 0.4375 22.7813 0.179688 21.1875 0.109375C19.582 0.0332031 19.0723 0.015625 15 0.015625Z" fill="black"/>
<path d="M15 7.31055C10.7461 7.31055 7.29492 10.7617 7.29492 15.0156C7.29492 19.2695 10.7461 22.7207 15 22.7207C19.2539 22.7207 22.7051 19.2695 22.7051 15.0156C22.7051 10.7617 19.2539 7.31055 15 7.31055ZM15 20.0137C12.2402 20.0137 10.002 17.7754 10.002 15.0156C10.002 12.2559 12.2402 10.0176 15 10.0176C17.7598 10.0176 19.998 12.2559 19.998 15.0156C19.998 17.7754 17.7598 20.0137 15 20.0137Z" fill="black"/>
<path d="M24.8086 7.00586C24.8086 8.00196 24 8.80469 23.0098 8.80469C22.0137 8.80469 21.2109 7.9961 21.2109 7.00586C21.2109 6.00977 22.0195 5.20703 23.0098 5.20703C24 5.20703 24.8086 6.01563 24.8086 7.00586Z" fill="black"/>
</g>
<defs>
<clipPath id="clip0_179_310">
<rect width="30" height="30" fill="white" transform="translate(0 0.015625)"/>
</clipPath>
</defs>
</svg>
