<svg width="30" height="31" viewBox="0 0 30 31" fill="none" xmlns="http://www.w3.org/2000/svg">
<path d="M27.7793 0.015625H2.21484C0.990234 0.015625 0 0.982422 0 2.17773V27.8477C0 29.043 0.990234 30.0156 2.21484 30.0156H27.7793C29.0039 30.0156 30 29.043 30 27.8535V2.17773C30 0.982422 29.0039 0.015625 27.7793 0.015625ZM8.90039 25.5801H4.44727V11.2598H8.90039V25.5801ZM6.67383 9.30859C5.24414 9.30859 4.08984 8.1543 4.08984 6.73047C4.08984 5.30664 5.24414 4.15234 6.67383 4.15234C8.09766 4.15234 9.25195 5.30664 9.25195 6.73047C9.25195 8.14844 8.09766 9.30859 6.67383 9.30859ZM25.5645 25.5801H21.1172V18.6191C21.1172 16.9609 21.0879 14.8223 18.8027 14.8223C16.4883 14.8223 16.1367 16.6328 16.1367 18.502V25.5801H11.6953V11.2598H15.9609V13.2168H16.0195C16.6113 12.0918 18.0645 10.9023 20.2266 10.9023C24.7324 10.9023 25.5645 13.8672 25.5645 17.7227V25.5801Z" fill="black"/>
</svg>
