<svg width="38" height="38" viewBox="0 0 38 38" fill="none" xmlns="http://www.w3.org/2000/svg">
<g clip-path="url(#clip0_359_314)">
<path d="M29.6414 7.35798C32.6991 10.2053 34.5101 14.161 34.6761 18.3551C34.8421 22.5492 33.3493 26.6379 30.5263 29.722C29.1285 31.249 27.4462 32.4834 25.5754 33.3547C23.7046 34.226 21.682 34.7171 19.623 34.8C15.4647 34.9674 11.4108 33.4618 8.35309 30.6145C5.29538 27.7673 3.48434 23.8115 3.31837 19.6174C3.1524 15.4234 4.64511 11.3346 7.46811 8.25057C8.86592 6.72352 10.5483 5.48911 12.4191 4.61782C14.2898 3.74654 16.3125 3.25543 18.3715 3.17254C20.4304 3.08966 22.4854 3.41662 24.4191 4.13476C26.3528 4.8529 28.1273 5.94815 29.6414 7.35798ZM13.7637 27.0368L22.279 17.7342L22.5887 25.5616L25.7373 25.4348L25.2134 12.1953L12.0868 12.7238L12.2125 15.8994L19.9731 15.587L11.4578 24.8897L13.7637 27.0368Z" fill="black"/>
</g>
<defs>
<clipPath id="clip0_359_314">
<rect width="37.6592" height="37.9831" fill="white" transform="translate(0.167603 -0.00531006)"/>
</clipPath>
</defs>
</svg>
