<svg width="25" height="25" viewBox="0 0 25 25" fill="none" xmlns="http://www.w3.org/2000/svg">
<path d="M12.4446 0.219055C19.134 0.219055 24.554 5.63898 24.554 12.3284C24.554 19.0179 19.134 24.4378 12.4446 24.4378C5.75513 24.4378 0.335205 19.0179 0.335205 12.3284C0.335205 5.63898 5.75513 0.219055 12.4446 0.219055ZM6.78052 14.4769H12.4446V17.9388C12.4446 18.4612 13.0793 18.7249 13.4456 18.3538L19.0266 12.7435C19.2561 12.514 19.2561 12.1478 19.0266 11.9183L13.4456 6.30304C13.0745 5.93195 12.4446 6.19562 12.4446 6.71808V10.18H6.78052C6.45825 10.18 6.19458 10.4437 6.19458 10.7659V13.8909C6.19458 14.2132 6.45825 14.4769 6.78052 14.4769Z" fill="white"/>
</svg>
